<svg width="323" height="323" viewBox="0 0 323 323" fill="none" xmlns="http://www.w3.org/2000/svg">
<path d="M317.912 99.5059C320.708 99.5059 322.975 97.2393 322.975 94.4433C322.975 91.6472 320.708 89.3806 317.912 89.3806C315.116 89.3806 312.85 91.6472 312.85 94.4433C312.85 97.2393 315.116 99.5059 317.912 99.5059Z" fill="#83235D"/>
<path d="M317.912 144.209C320.708 144.209 322.975 141.943 322.975 139.147C322.975 136.35 320.708 134.084 317.912 134.084C315.116 134.084 312.85 136.35 312.85 139.147C312.85 141.943 315.116 144.209 317.912 144.209Z" fill="#83235D"/>
<path d="M317.912 188.912C320.708 188.912 322.975 186.646 322.975 183.85C322.975 181.054 320.708 178.787 317.912 178.787C315.116 178.787 312.85 181.054 312.85 183.85C312.85 186.646 315.116 188.912 317.912 188.912Z" fill="#83235D"/>
<path d="M317.912 233.616C320.708 233.616 322.975 231.349 322.975 228.553C322.975 225.757 320.708 223.49 317.912 223.49C315.116 223.49 312.85 225.757 312.85 228.553C312.85 231.349 315.116 233.616 317.912 233.616Z" fill="#83235D"/>
<path d="M273.209 54.8532C276.005 54.8532 278.272 52.5866 278.272 49.7906C278.272 46.9945 276.005 44.7279 273.209 44.7279C270.413 44.7279 268.146 46.9945 268.146 49.7906C268.146 52.5866 270.413 54.8532 273.209 54.8532Z" fill="#83235D"/>
<path d="M273.209 99.5059C276.005 99.5059 278.272 97.2393 278.272 94.4433C278.272 91.6472 276.005 89.3806 273.209 89.3806C270.413 89.3806 268.146 91.6472 268.146 94.4433C268.146 97.2393 270.413 99.5059 273.209 99.5059Z" fill="#83235D"/>
<path d="M273.209 144.209C276.005 144.209 278.272 141.943 278.272 139.147C278.272 136.35 276.005 134.084 273.209 134.084C270.413 134.084 268.146 136.35 268.146 139.147C268.146 141.943 270.413 144.209 273.209 144.209Z" fill="#83235D"/>
<path d="M273.209 188.912C276.005 188.912 278.272 186.646 278.272 183.85C278.272 181.054 276.005 178.787 273.209 178.787C270.413 178.787 268.146 181.054 268.146 183.85C268.146 186.646 270.413 188.912 273.209 188.912Z" fill="#83235D"/>
<path d="M273.209 233.616C276.005 233.616 278.272 231.349 278.272 228.553C278.272 225.757 276.005 223.49 273.209 223.49C270.413 223.49 268.146 225.757 268.146 228.553C268.146 231.349 270.413 233.616 273.209 233.616Z" fill="#83235D"/>
<path d="M273.209 278.319C276.005 278.319 278.272 276.052 278.272 273.256C278.272 270.46 276.005 268.194 273.209 268.194C270.413 268.194 268.146 270.46 268.146 273.256C268.146 276.052 270.413 278.319 273.209 278.319Z" fill="#83235D"/>
<path d="M228.557 10.15C231.353 10.15 233.619 7.88335 233.619 5.08732C233.619 2.29129 231.353 0.0246582 228.557 0.0246582C225.761 0.0246582 223.494 2.29129 223.494 5.08732C223.494 7.88335 225.761 10.15 228.557 10.15Z" fill="#83235D"/>
<path d="M228.557 54.8532C231.353 54.8532 233.619 52.5866 233.619 49.7906C233.619 46.9945 231.353 44.7279 228.557 44.7279C225.761 44.7279 223.494 46.9945 223.494 49.7906C223.494 52.5866 225.761 54.8532 228.557 54.8532Z" fill="#83235D"/>
<path d="M228.557 99.5059C231.353 99.5059 233.619 97.2393 233.619 94.4433C233.619 91.6472 231.353 89.3806 228.557 89.3806C225.761 89.3806 223.494 91.6472 223.494 94.4433C223.494 97.2393 225.761 99.5059 228.557 99.5059Z" fill="#83235D"/>
<path d="M228.557 144.209C231.353 144.209 233.619 141.943 233.619 139.147C233.619 136.35 231.353 134.084 228.557 134.084C225.761 134.084 223.494 136.35 223.494 139.147C223.494 141.943 225.761 144.209 228.557 144.209Z" fill="#83235D"/>
<path d="M228.557 188.912C231.353 188.912 233.619 186.646 233.619 183.85C233.619 181.054 231.353 178.787 228.557 178.787C225.761 178.787 223.494 181.054 223.494 183.85C223.494 186.646 225.761 188.912 228.557 188.912Z" fill="#83235D"/>
<path d="M228.557 233.616C231.353 233.616 233.619 231.349 233.619 228.553C233.619 225.757 231.353 223.49 228.557 223.49C225.761 223.49 223.494 225.757 223.494 228.553C223.494 231.349 225.761 233.616 228.557 233.616Z" fill="#83235D"/>
<path d="M228.557 278.319C231.353 278.319 233.619 276.052 233.619 273.256C233.619 270.46 231.353 268.194 228.557 268.194C225.761 268.194 223.494 270.46 223.494 273.256C223.494 276.052 225.761 278.319 228.557 278.319Z" fill="#83235D"/>
<path d="M228.557 322.972C231.353 322.972 233.619 320.705 233.619 317.909C233.619 315.113 231.353 312.846 228.557 312.846C225.761 312.846 223.494 315.113 223.494 317.909C223.494 320.705 225.761 322.972 228.557 322.972Z" fill="#83235D"/>
<path d="M183.854 10.15C186.65 10.15 188.916 7.88335 188.916 5.08732C188.916 2.29129 186.65 0.0246582 183.854 0.0246582C181.058 0.0246582 178.791 2.29129 178.791 5.08732C178.791 7.88335 181.058 10.15 183.854 10.15Z" fill="#83235D"/>
<path d="M183.854 54.8532C186.65 54.8532 188.916 52.5866 188.916 49.7906C188.916 46.9945 186.65 44.7279 183.854 44.7279C181.058 44.7279 178.791 46.9945 178.791 49.7906C178.791 52.5866 181.058 54.8532 183.854 54.8532Z" fill="#83235D"/>
<path d="M183.854 99.5059C186.65 99.5059 188.916 97.2393 188.916 94.4433C188.916 91.6472 186.65 89.3806 183.854 89.3806C181.058 89.3806 178.791 91.6472 178.791 94.4433C178.791 97.2393 181.058 99.5059 183.854 99.5059Z" fill="#83235D"/>
<path d="M183.854 144.209C186.65 144.209 188.916 141.943 188.916 139.147C188.916 136.35 186.65 134.084 183.854 134.084C181.058 134.084 178.791 136.35 178.791 139.147C178.791 141.943 181.058 144.209 183.854 144.209Z" fill="#83235D"/>
<path d="M183.854 188.912C186.65 188.912 188.916 186.646 188.916 183.85C188.916 181.054 186.65 178.787 183.854 178.787C181.058 178.787 178.791 181.054 178.791 183.85C178.791 186.646 181.058 188.912 183.854 188.912Z" fill="#83235D"/>
<path d="M183.854 233.616C186.65 233.616 188.916 231.349 188.916 228.553C188.916 225.757 186.65 223.49 183.854 223.49C181.058 223.49 178.791 225.757 178.791 228.553C178.791 231.349 181.058 233.616 183.854 233.616Z" fill="#83235D"/>
<path d="M183.854 278.319C186.65 278.319 188.916 276.052 188.916 273.256C188.916 270.46 186.65 268.194 183.854 268.194C181.058 268.194 178.791 270.46 178.791 273.256C178.791 276.052 181.058 278.319 183.854 278.319Z" fill="#83235D"/>
<path d="M183.854 322.972C186.65 322.972 188.916 320.705 188.916 317.909C188.916 315.113 186.65 312.846 183.854 312.846C181.058 312.846 178.791 315.113 178.791 317.909C178.791 320.705 181.058 322.972 183.854 322.972Z" fill="#83235D"/>
<path d="M139.151 10.15C141.947 10.15 144.213 7.88335 144.213 5.08732C144.213 2.29129 141.947 0.0246582 139.151 0.0246582C136.355 0.0246582 134.088 2.29129 134.088 5.08732C134.088 7.88335 136.355 10.15 139.151 10.15Z" fill="#83235D"/>
<path d="M139.151 54.8532C141.947 54.8532 144.213 52.5866 144.213 49.7906C144.213 46.9945 141.947 44.7279 139.151 44.7279C136.355 44.7279 134.088 46.9945 134.088 49.7906C134.088 52.5866 136.355 54.8532 139.151 54.8532Z" fill="#83235D"/>
<path d="M139.151 99.5059C141.947 99.5059 144.213 97.2393 144.213 94.4433C144.213 91.6472 141.947 89.3806 139.151 89.3806C136.355 89.3806 134.088 91.6472 134.088 94.4433C134.088 97.2393 136.355 99.5059 139.151 99.5059Z" fill="#83235D"/>
<path d="M139.151 144.209C141.947 144.209 144.213 141.943 144.213 139.147C144.213 136.35 141.947 134.084 139.151 134.084C136.355 134.084 134.088 136.35 134.088 139.147C134.088 141.943 136.355 144.209 139.151 144.209Z" fill="#83235D"/>
<path d="M139.151 188.912C141.947 188.912 144.213 186.646 144.213 183.85C144.213 181.054 141.947 178.787 139.151 178.787C136.355 178.787 134.088 181.054 134.088 183.85C134.088 186.646 136.355 188.912 139.151 188.912Z" fill="#83235D"/>
<path d="M139.151 233.616C141.947 233.616 144.213 231.349 144.213 228.553C144.213 225.757 141.947 223.49 139.151 223.49C136.355 223.49 134.088 225.757 134.088 228.553C134.088 231.349 136.355 233.616 139.151 233.616Z" fill="#83235D"/>
<path d="M139.151 278.319C141.947 278.319 144.213 276.052 144.213 273.256C144.213 270.46 141.947 268.194 139.151 268.194C136.355 268.194 134.088 270.46 134.088 273.256C134.088 276.052 136.355 278.319 139.151 278.319Z" fill="#83235D"/>
<path d="M139.151 322.972C141.947 322.972 144.213 320.705 144.213 317.909C144.213 315.113 141.947 312.846 139.151 312.846C136.355 312.846 134.088 315.113 134.088 317.909C134.088 320.705 136.355 322.972 139.151 322.972Z" fill="#83235D"/>
<path d="M94.4464 10.15C97.2425 10.15 99.5091 7.88335 99.5091 5.08732C99.5091 2.29129 97.2425 0.0246582 94.4464 0.0246582C91.6504 0.0246582 89.3838 2.29129 89.3838 5.08732C89.3838 7.88335 91.6504 10.15 94.4464 10.15Z" fill="#83235D"/>
<path d="M94.4464 54.8532C97.2425 54.8532 99.5091 52.5866 99.5091 49.7906C99.5091 46.9945 97.2425 44.7279 94.4464 44.7279C91.6504 44.7279 89.3838 46.9945 89.3838 49.7906C89.3838 52.5866 91.6504 54.8532 94.4464 54.8532Z" fill="#83235D"/>
<path d="M94.4464 99.5059C97.2425 99.5059 99.5091 97.2393 99.5091 94.4433C99.5091 91.6472 97.2425 89.3806 94.4464 89.3806C91.6504 89.3806 89.3838 91.6472 89.3838 94.4433C89.3838 97.2393 91.6504 99.5059 94.4464 99.5059Z" fill="#83235D"/>
<path d="M94.4464 144.209C97.2425 144.209 99.5091 141.943 99.5091 139.147C99.5091 136.35 97.2425 134.084 94.4464 134.084C91.6504 134.084 89.3838 136.35 89.3838 139.147C89.3838 141.943 91.6504 144.209 94.4464 144.209Z" fill="#83235D"/>
<path d="M94.4464 188.912C97.2425 188.912 99.5091 186.646 99.5091 183.85C99.5091 181.054 97.2425 178.787 94.4464 178.787C91.6504 178.787 89.3838 181.054 89.3838 183.85C89.3838 186.646 91.6504 188.912 94.4464 188.912Z" fill="#83235D"/>
<path d="M94.4464 233.616C97.2425 233.616 99.5091 231.349 99.5091 228.553C99.5091 225.757 97.2425 223.49 94.4464 223.49C91.6504 223.49 89.3838 225.757 89.3838 228.553C89.3838 231.349 91.6504 233.616 94.4464 233.616Z" fill="#83235D"/>
<path d="M94.4464 278.319C97.2425 278.319 99.5091 276.052 99.5091 273.256C99.5091 270.46 97.2425 268.194 94.4464 268.194C91.6504 268.194 89.3838 270.46 89.3838 273.256C89.3838 276.052 91.6504 278.319 94.4464 278.319Z" fill="#83235D"/>
<path d="M94.4464 322.972C97.2425 322.972 99.5091 320.705 99.5091 317.909C99.5091 315.113 97.2425 312.846 94.4464 312.846C91.6504 312.846 89.3838 315.113 89.3838 317.909C89.3838 320.705 91.6504 322.972 94.4464 322.972Z" fill="#83235D"/>
<path d="M49.7941 54.8532C52.5901 54.8532 54.8568 52.5866 54.8568 49.7906C54.8568 46.9945 52.5901 44.7279 49.7941 44.7279C46.9981 44.7279 44.7314 46.9945 44.7314 49.7906C44.7314 52.5866 46.9981 54.8532 49.7941 54.8532Z" fill="#83235D"/>
<path d="M49.7941 99.5059C52.5901 99.5059 54.8568 97.2393 54.8568 94.4433C54.8568 91.6472 52.5901 89.3806 49.7941 89.3806C46.9981 89.3806 44.7314 91.6472 44.7314 94.4433C44.7314 97.2393 46.9981 99.5059 49.7941 99.5059Z" fill="#83235D"/>
<path d="M49.7941 144.209C52.5901 144.209 54.8568 141.943 54.8568 139.147C54.8568 136.35 52.5901 134.084 49.7941 134.084C46.9981 134.084 44.7314 136.35 44.7314 139.147C44.7314 141.943 46.9981 144.209 49.7941 144.209Z" fill="#83235D"/>
<path d="M49.7941 188.912C52.5901 188.912 54.8568 186.646 54.8568 183.85C54.8568 181.054 52.5901 178.787 49.7941 178.787C46.9981 178.787 44.7314 181.054 44.7314 183.85C44.7314 186.646 46.9981 188.912 49.7941 188.912Z" fill="#83235D"/>
<path d="M49.7941 233.616C52.5901 233.616 54.8568 231.349 54.8568 228.553C54.8568 225.757 52.5901 223.49 49.7941 223.49C46.9981 223.49 44.7314 225.757 44.7314 228.553C44.7314 231.349 46.9981 233.616 49.7941 233.616Z" fill="#83235D"/>
<path d="M49.7941 278.319C52.5901 278.319 54.8568 276.052 54.8568 273.256C54.8568 270.46 52.5901 268.194 49.7941 268.194C46.9981 268.194 44.7314 270.46 44.7314 273.256C44.7314 276.052 46.9981 278.319 49.7941 278.319Z" fill="#83235D"/>
<path d="M5.09098 99.5059C7.88701 99.5059 10.1536 97.2393 10.1536 94.4433C10.1536 91.6472 7.88701 89.3806 5.09098 89.3806C2.29495 89.3806 0.0283203 91.6472 0.0283203 94.4433C0.0283203 97.2393 2.29495 99.5059 5.09098 99.5059Z" fill="#83235D"/>
<path d="M5.09098 144.209C7.88701 144.209 10.1536 141.943 10.1536 139.147C10.1536 136.35 7.88701 134.084 5.09098 134.084C2.29495 134.084 0.0283203 136.35 0.0283203 139.147C0.0283203 141.943 2.29495 144.209 5.09098 144.209Z" fill="#83235D"/>
<path d="M5.09098 188.912C7.88701 188.912 10.1536 186.646 10.1536 183.85C10.1536 181.054 7.88701 178.787 5.09098 178.787C2.29495 178.787 0.0283203 181.054 0.0283203 183.85C0.0283203 186.646 2.29495 188.912 5.09098 188.912Z" fill="#83235D"/>
<path d="M5.09098 233.616C7.88701 233.616 10.1536 231.349 10.1536 228.553C10.1536 225.757 7.88701 223.49 5.09098 223.49C2.29495 223.49 0.0283203 225.757 0.0283203 228.553C0.0283203 231.349 2.29495 233.616 5.09098 233.616Z" fill="#83235D"/>
</svg>
