<svg width="51" height="64" viewBox="0 0 51 64" fill="none" xmlns="http://www.w3.org/2000/svg">
<path d="M25.625 50C11.8179 50 0.625 38.8071 0.625 25C0.625 11.1929 11.8179 0 25.625 0C39.4321 0 50.625 11.1929 50.625 25C50.625 38.8071 39.4321 50 25.625 50Z" fill="#D25DA2"/>
<path fill-rule="evenodd" clip-rule="evenodd" d="M13.4652 45.4273C12.2067 45.4614 10.8806 45.8061 10.3981 46.9691C10.1702 47.5183 10 48.252 10 49.2188C10 50.1855 10.1702 50.9192 10.3981 51.4684C10.5509 51.837 10.7886 52.1234 11.082 52.3438C10.7886 52.5641 10.5509 52.8505 10.3981 53.2191C10.1702 53.7683 10 54.502 10 55.4688C10 56.4355 10.1702 57.1692 10.3981 57.7184C10.8806 58.8814 12.2067 59.2261 13.4652 59.2602C14.1505 59.2786 15.0527 59.2984 16.2206 59.3162L17.1638 61.2025C17.5752 62.0253 18.3277 62.6248 19.2355 62.7742C20.6033 62.9994 22.8669 63.2812 25.625 63.2812C28.3831 63.2812 30.6467 62.9994 32.0145 62.7742C32.9223 62.6248 33.6748 62.0253 34.0862 61.2025L35.0294 59.3162C36.1973 59.2984 37.0995 59.2786 37.7848 59.2602C39.0433 59.2261 40.3694 58.8814 40.8519 57.7184C41.0798 57.1692 41.25 56.4355 41.25 55.4688C41.25 54.502 41.0798 53.7683 40.8519 53.2191C40.6991 52.8505 40.4614 52.5641 40.168 52.3438C40.4614 52.1234 40.6991 51.837 40.8519 51.4684C41.0798 50.9192 41.25 50.1855 41.25 49.2188C41.25 48.252 41.0798 47.5183 40.8519 46.9691C40.3694 45.8061 39.0433 45.4614 37.7848 45.4273C35.8431 45.3748 32.1609 45.3125 25.625 45.3125C19.0891 45.3125 15.4069 45.3748 13.4652 45.4273Z" fill="#E2E4E6"/>
<path fill-rule="evenodd" clip-rule="evenodd" d="M25.625 12.5C32.5286 12.5 38.125 18.0964 38.125 25C38.125 26.7259 39.5241 28.125 41.25 28.125C42.9759 28.125 44.375 26.7259 44.375 25C44.375 14.6447 35.9803 6.25 25.625 6.25C23.8991 6.25 22.5 7.64911 22.5 9.375C22.5 11.1009 23.8991 12.5 25.625 12.5Z" fill="#E2E4E5"/>
</svg>
