<svg width="51" height="63" viewBox="0 0 51 63" fill="none" xmlns="http://www.w3.org/2000/svg">
<path d="M0.875 37.1079C0.875 50.915 12.0679 62.1079 25.875 62.1079C39.6821 62.1079 50.875 50.915 50.875 37.1079C50.875 23.3009 39.6821 12.1079 25.875 12.1079C12.0679 12.1079 0.875 23.3009 0.875 37.1079Z" fill="#E2E4E5"/>
<path fill-rule="evenodd" clip-rule="evenodd" d="M18.522 32.6962C18.522 34.3206 17.2052 35.6374 15.5808 35.6374C13.9564 35.6374 12.6396 34.3206 12.6396 32.6962C12.6396 31.0718 13.9564 29.755 15.5808 29.755C17.2052 29.755 18.522 31.0718 18.522 32.6962ZM19.9926 42.255C21.2108 42.255 22.1985 43.2427 22.1985 44.4609C22.1985 46.4913 23.8445 48.1374 25.8749 48.1374C27.9054 48.1374 29.5514 46.4913 29.5514 44.4609C29.5514 43.2427 30.5391 42.255 31.7573 42.255C32.9755 42.255 33.9632 43.2427 33.9632 44.4609C33.9632 48.9279 30.342 52.5491 25.8749 52.5491C21.4079 52.5491 17.7867 48.9279 17.7867 44.4609C17.7867 43.2427 18.7744 42.255 19.9926 42.255ZM36.1691 35.6374C34.5446 35.6374 33.2279 34.3206 33.2279 32.6962C33.2279 31.0718 34.5446 29.755 36.1691 29.755C37.7935 29.755 39.1102 31.0718 39.1102 32.6962C39.1102 34.3206 37.7935 35.6374 36.1691 35.6374Z" fill="#D25DA2"/>
<path d="M17.6762 8.58489C18.3279 8.92338 19.1241 8.7183 19.5394 8.11267C20.9707 6.02539 23.2645 2.68015 24.6642 0.638934C25.2484 -0.212978 26.5023 -0.212978 27.0866 0.638934C28.4863 2.68015 30.7801 6.02539 32.2115 8.11267C32.6267 8.7183 33.4229 8.92338 34.0747 8.58489C36.2937 7.43235 38.7629 6.04317 40.6204 4.97617C41.7322 4.33757 43.0651 5.30833 42.7551 6.5524C42.1722 8.89226 41.2706 12.2568 40.0969 15.8673C39.9623 16.2813 39.6506 16.6084 39.2313 16.725C37.7757 17.1293 33.752 17.9903 25.8754 17.9903C18.0822 17.9903 14.0607 17.1475 12.5667 16.7379C12.1207 16.6157 11.796 16.2565 11.6738 15.8104C10.6215 11.9699 9.78645 8.93348 9.20204 6.81254C8.84998 5.53458 10.2416 4.46715 11.3917 5.12612C13.2156 6.17108 15.5598 7.48561 17.6762 8.58489Z" fill="#D25DA2"/>
</svg>
