<svg width="60" height="59" viewBox="0 0 60 59" fill="none" xmlns="http://www.w3.org/2000/svg">
<path d="M30.125 58.8125C46.3138 58.8125 59.4375 45.6888 59.4375 29.5C59.4375 13.3112 46.3138 0.1875 30.125 0.1875C13.9362 0.1875 0.8125 13.3112 0.8125 29.5C0.8125 45.6888 13.9362 58.8125 30.125 58.8125Z" fill="#E2E4E5"/>
<path fill-rule="evenodd" clip-rule="evenodd" d="M3.37109 41.0515C5.07612 36.9123 8.62151 33.7254 12.9882 32.5095C10.1099 31.0645 8.13456 28.0858 8.13456 24.6456C8.13456 19.7891 12.0717 15.8519 16.9283 15.8519C21.785 15.8519 25.7221 19.7891 25.7221 24.6456C25.7221 28.0858 23.7467 31.0645 20.8684 32.5095C24.9429 33.644 28.3024 36.4947 30.1188 40.2337C31.9354 36.4947 35.2947 33.644 39.3693 32.5095C36.4909 31.0645 34.5157 28.0858 34.5157 24.6456C34.5157 19.7891 38.4528 15.8519 43.3093 15.8519C48.166 15.8519 52.1032 19.7891 52.1032 24.6456C52.1032 28.0858 50.1278 31.0645 47.2495 32.5095C51.6161 33.7254 55.1613 36.9122 56.8665 41.0511C52.2796 51.2521 42.0286 58.3551 30.1187 58.3551C18.2089 58.3551 7.95801 51.2523 3.37109 41.0515Z" fill="#D25DA2"/>
</svg>
