<svg width="67" height="66" viewBox="0 0 67 66" fill="none" xmlns="http://www.w3.org/2000/svg">
<path d="M60.0317 35.7919C60.0317 52.1966 46.7331 65.4953 30.3284 65.4953C13.9237 65.4953 0.625 52.1966 0.625 35.7919C0.625 19.3872 13.9237 6.08856 30.3284 6.08856C46.7331 6.08856 60.0317 19.3872 60.0317 35.7919Z" fill="#E2E4E5"/>
<path d="M66.1008 34.9968C64.2875 16.5275 49.5973 1.83744 31.1282 0.0240144C28.7708 -0.207437 26.7701 1.25281 26.4407 3.59841C26.0392 6.45808 25.6426 11.3154 25.6426 19.3459C25.6426 29.3409 26.257 34.4204 26.7305 36.8507C26.9891 38.1788 27.946 39.1357 29.2742 39.3944C31.7044 39.8678 36.784 40.4822 46.7789 40.4822C54.8094 40.4822 59.6667 40.0856 62.5264 39.6841C64.872 39.3549 66.3323 37.354 66.1008 34.9968Z" fill="#D25DA2"/>
</svg>
