<svg width="21" height="20" viewBox="0 0 21 20" fill="none" xmlns="http://www.w3.org/2000/svg">
<path fill-rule="evenodd" clip-rule="evenodd" d="M2.295 0.4375C1.54527 0.4375 0.9375 1.04527 0.9375 1.795V18.205C0.9375 18.9547 1.54527 19.5624 2.295 19.5624H18.705C19.4547 19.5624 20.0625 18.9547 20.0625 18.205V1.795C20.0625 1.04527 19.4547 0.4375 18.705 0.4375H2.295ZM5.23018 6.37678C6.14647 6.37678 6.88927 5.63398 6.88927 4.71769C6.88927 3.8014 6.14647 3.0586 5.23018 3.0586C4.31389 3.0586 3.57109 3.8014 3.57109 4.71769C3.57109 5.63398 4.31389 6.37678 5.23018 6.37678ZM8.40872 7.60289H11.1584V8.86252C11.1584 8.86252 11.9045 7.37021 13.9347 7.37021C15.7457 7.37021 17.2459 8.26235 17.2459 10.9817V16.716H14.3965V11.6765C14.3965 10.0724 13.5401 9.89595 12.8875 9.89595C11.5331 9.89595 11.3013 11.0642 11.3013 11.8858V16.716H8.40872V7.60289ZM6.67646 7.6029H3.78391V16.716H6.67646V7.6029Z" fill="white"/>
</svg>
