<svg width="50" height="50" viewBox="0 0 50 50" fill="none" xmlns="http://www.w3.org/2000/svg">
<rect width="50" height="50" rx="8" fill="url(#paint0_radial_30_3271)"/>
<mask id="path-2-inside-1_30_3271" fill="white">
<path d="M25.4586 15.0677C25.1062 15.1055 24.7726 15.28 24.5058 15.5663L9.05086 32.0357C8.87685 32.2099 8.73307 32.4255 8.62809 32.6696C8.52311 32.9137 8.45907 33.1813 8.43979 33.4565C8.4205 33.7318 8.44636 34.009 8.51584 34.2716C8.58532 34.5343 8.69697 34.777 8.84418 34.9854C8.99139 35.1938 9.17112 35.3635 9.37268 35.4845C9.57424 35.6055 9.79351 35.6753 10.0174 35.6897C10.2413 35.7041 10.4653 35.6628 10.676 35.5684C10.8867 35.4739 11.0798 35.3282 11.2438 35.1398L25.6023 19.8445L39.9607 35.1398C40.1247 35.3282 40.3178 35.4739 40.5285 35.5684C40.7392 35.6628 40.9632 35.7041 41.1871 35.6897C41.411 35.6753 41.6303 35.6055 41.8318 35.4845C42.0334 35.3635 42.2131 35.1938 42.3603 34.9854C42.5075 34.777 42.6192 34.5343 42.6887 34.2716C42.7582 34.009 42.784 33.7318 42.7648 33.4565C42.7455 33.1813 42.6814 32.9137 42.5765 32.6696C42.4715 32.4255 42.3277 32.2099 42.1537 32.0357L26.6987 15.5663C26.5297 15.385 26.3329 15.2474 26.1198 15.1618C25.9068 15.0761 25.6819 15.0441 25.4586 15.0677Z"/>
</mask>
<path d="M24.5058 15.5663L28.881 19.6721L28.8882 19.6644L28.8954 19.6567L24.5058 15.5663ZM9.05086 32.0357L13.2958 36.276L13.362 36.2097L13.4261 36.1414L9.05086 32.0357ZM11.2438 35.1398L6.8693 31.0333L6.79261 31.1149L6.71903 31.1994L11.2438 35.1398ZM25.6023 19.8445L29.9768 15.7379L25.6023 11.078L21.2278 15.7379L25.6023 19.8445ZM39.9607 35.1398L44.4855 31.1994L44.4119 31.1149L44.3352 31.0333L39.9607 35.1398ZM42.1537 32.0357L37.7784 36.1414L37.8425 36.2097L37.9087 36.276L42.1537 32.0357ZM26.6987 15.5663L22.3097 19.6574L22.3166 19.6647L22.3235 19.6721L26.6987 15.5663ZM24.8202 9.1018C22.8798 9.30946 21.257 10.2516 20.1162 11.4759L28.8954 19.6567C28.2881 20.3084 27.3326 20.9015 26.0971 21.0337L24.8202 9.1018ZM20.1305 11.4606L4.67561 27.9299L13.4261 36.1414L28.881 19.6721L20.1305 11.4606ZM4.80588 27.7954C4.05382 28.5483 3.49742 29.4127 3.11625 30.299L14.1399 35.0401C13.9687 35.4382 13.6999 35.8715 13.2958 36.276L4.80588 27.7954ZM3.11625 30.299C2.73478 31.186 2.51902 32.1158 2.45446 33.0372L14.4251 33.8759C14.3991 34.2469 14.3114 34.6414 14.1399 35.0401L3.11625 30.299ZM2.45446 33.0372C2.38988 33.9589 2.47477 34.8965 2.71534 35.806L14.3163 32.7373C14.4179 33.1214 14.4511 33.5047 14.4251 33.8759L2.45446 33.0372ZM2.71534 35.806C2.95561 36.7143 3.35783 37.6181 3.9437 38.4474L13.7447 31.5234C14.0361 31.936 14.215 32.3543 14.3163 32.7373L2.71534 35.806ZM3.9437 38.4474C4.53023 39.2776 5.30952 40.0435 6.28455 40.6288L12.4608 30.3403C13.0327 30.6836 13.4525 31.1099 13.7447 31.5234L3.9437 38.4474ZM6.28455 40.6288C7.26645 41.2182 8.40692 41.5985 9.63214 41.6773L10.4027 29.7021C11.1801 29.7521 11.882 29.9928 12.4608 30.3403L6.28455 40.6288ZM9.63214 41.6773C10.8594 41.7563 12.0561 41.5251 13.1308 41.0432L8.22114 30.0935C8.87444 29.8006 9.62326 29.6519 10.4027 29.7021L9.63214 41.6773ZM13.1308 41.0432C14.1977 40.5648 15.0812 39.8695 15.7686 39.0802L6.71903 31.1994C7.07838 30.7868 7.57563 30.383 8.22114 30.0935L13.1308 41.0432ZM15.6183 39.2464L29.9768 23.9511L21.2278 15.7379L6.8693 31.0333L15.6183 39.2464ZM21.2278 23.9511L35.5862 39.2464L44.3352 31.0333L29.9768 15.7379L21.2278 23.9511ZM35.436 39.0802C36.1234 39.8695 37.0068 40.5648 38.0737 41.0432L42.9834 30.0935C43.6289 30.383 44.1261 30.7868 44.4855 31.1994L35.436 39.0802ZM38.0737 41.0432C39.1484 41.5251 40.3452 41.7563 41.5724 41.6773L40.8018 29.7021C41.5813 29.6519 42.3301 29.8006 42.9834 30.0935L38.0737 41.0432ZM41.5724 41.6773C42.7977 41.5985 43.9382 41.2181 44.9199 40.6288L38.7437 30.3403C39.3223 29.9929 40.0243 29.7521 40.8018 29.7021L41.5724 41.6773ZM44.9199 40.6288C45.895 40.0435 46.6743 39.2776 47.2608 38.4474L37.4598 31.5234C37.7519 31.1099 38.1718 30.6836 38.7437 30.3403L44.9199 40.6288ZM47.2608 38.4474C47.8465 37.6184 48.2488 36.7147 48.4892 35.806L36.8882 32.7373C36.9896 32.3539 37.1686 31.9357 37.4598 31.5234L47.2608 38.4474ZM48.4892 35.806C48.7297 34.8969 48.8147 33.9592 48.7501 33.0372L36.7794 33.8759C36.7534 33.5043 36.7867 33.1211 36.8882 32.7373L48.4892 35.806ZM48.7501 33.0372C48.6855 32.1158 48.4698 31.186 48.0883 30.299L37.0646 35.0401C36.8931 34.6414 36.8054 34.2469 36.7794 33.8759L48.7501 33.0372ZM48.0883 30.299C47.707 29.4124 47.1505 28.5481 46.3986 27.7954L37.9087 36.276C37.5049 35.8717 37.236 35.4385 37.0646 35.0401L48.0883 30.299ZM46.5289 27.9299L31.074 11.4606L22.3235 19.6721L37.7784 36.1414L46.5289 27.9299ZM31.0877 11.4753C30.3673 10.7024 29.4512 10.0344 28.3581 9.59488L23.8816 20.7287C23.2145 20.4605 22.6921 20.0676 22.3097 19.6574L31.0877 11.4753ZM28.3581 9.59488C27.2572 9.15226 26.0486 8.97198 24.8281 9.10097L26.0892 21.0345C25.3152 21.1163 24.5564 21 23.8816 20.7287L28.3581 9.59488Z" fill="#E2E4E5" mask="url(#path-2-inside-1_30_3271)"/>
<defs>
<radialGradient id="paint0_radial_30_3271" cx="0" cy="0" r="1" gradientUnits="userSpaceOnUse" gradientTransform="translate(0.396468 -1.03471) rotate(45.8148) scale(71.1692 82.8207)">
<stop stop-color="#631F49"/>
<stop offset="0.606429" stop-color="#631F46" stop-opacity="0.62"/>
<stop offset="1" stop-color="#BD604D" stop-opacity="0.58"/>
</radialGradient>
</defs>
</svg>
