<svg width="22" height="22" viewBox="0 0 22 22" fill="none" xmlns="http://www.w3.org/2000/svg">
<path d="M11.044 0.838745C5.28055 0.838745 0.590097 5.35645 0.588065 10.9086C0.58671 12.6841 1.06903 14.4169 1.98355 15.9432L0.5 21.1613L6.04332 19.7611C7.58528 20.5677 9.29979 20.9884 11.04 20.9872H11.044C16.8075 20.9872 21.498 16.4688 21.5 10.9167C21.5014 8.22736 20.4148 5.69584 18.4401 3.79297C16.4661 1.88942 13.8411 0.839423 11.044 0.838745ZM11.044 19.2862H11.0406C9.48123 19.2862 7.95161 18.8825 6.6171 18.1197L6.29871 17.9382L3.01052 18.7687L3.88845 15.6796L3.68184 15.3633C2.814 14.0397 2.35202 12.4913 2.35274 10.9086C2.35477 6.29333 6.254 2.53975 11.0474 2.53975C13.3683 2.54042 15.5502 3.41226 17.1916 4.99404C18.833 6.57581 19.736 8.6792 19.7346 10.916C19.7326 15.5313 15.8341 19.2862 11.0434 19.2862H11.044ZM15.811 13.0167C15.5495 12.8914 14.2652 12.2824 14.0254 12.1977C13.7862 12.1144 13.6121 12.071 13.438 12.323C13.2646 12.575 12.7633 13.142 12.6116 13.3094C12.4585 13.4774 12.3061 13.4977 12.0446 13.3724C11.7831 13.2464 10.9411 12.9808 9.9439 12.1232C9.1669 11.4566 8.64258 10.6329 8.49016 10.3802C8.33774 10.1289 8.4739 9.99271 8.60464 9.86739C8.72184 9.75562 8.86613 9.57407 8.99619 9.42707C9.12626 9.28007 9.16961 9.17507 9.25768 9.00707C9.34439 8.83974 9.30103 8.69207 9.23532 8.56675C9.16961 8.44007 8.648 7.20174 8.42919 6.69842C8.21784 6.20797 8.00242 6.27368 7.84187 6.26555C7.68945 6.25878 7.51603 6.25675 7.34058 6.25675C7.16784 6.25675 6.884 6.31975 6.64419 6.57175C6.40506 6.82375 5.72968 7.43207 5.72968 8.67039C5.72968 9.90939 6.66587 11.1057 6.79661 11.2737C6.92735 11.441 8.63919 13.9834 11.2601 15.074C11.8834 15.3321 12.3697 15.4873 12.7498 15.6038C13.3757 15.7955 13.9454 15.7677 14.3952 15.7034C14.8965 15.6309 15.9411 15.095 16.1579 14.5077C16.376 13.9204 16.376 13.4164 16.311 13.3114C16.2473 13.2064 16.0725 13.1434 15.811 13.0167V13.0167Z" fill="white"/>
</svg>
